<svg xmlns="http://www.w3.org/2000/svg" viewBox="0 0 32 32" width="32" height="32">
  <!-- Simplified flower for favicon -->
  <g fill="#10b981" stroke="#059669" stroke-width="0.5">
    <!-- Simplified petals -->
    <ellipse cx="16" cy="10" rx="3" ry="6" transform="rotate(0 16 16)"/>
    <ellipse cx="16" cy="10" rx="3" ry="6" transform="rotate(60 16 16)"/>
    <ellipse cx="16" cy="10" rx="3" ry="6" transform="rotate(120 16 16)"/>
    <ellipse cx="16" cy="10" rx="3" ry="6" transform="rotate(180 16 16)"/>
    <ellipse cx="16" cy="10" rx="3" ry="6" transform="rotate(240 16 16)"/>
    <ellipse cx="16" cy="10" rx="3" ry="6" transform="rotate(300 16 16)"/>
  </g>
  
  <!-- Flower center -->
  <circle cx="16" cy="16" r="2.5" fill="#34d399"/>
  
  <!-- Stem -->
  <line x1="16" y1="18" x2="16" y2="28" stroke="#059669" stroke-width="1.5" stroke-linecap="round"/>
  
  <!-- Leaves -->
  <path d="M 14 22 Q 10 24 12 26 Q 14 24 16 24" fill="#10b981"/>
  <path d="M 18 24 Q 22 26 20 28 Q 18 26 16 26" fill="#10b981"/>
</svg>
